# xmcd
#
# Track frame offsets:
# 150
# 13245
# 26709
# 43026
# 59043
# 73183
# 93736
# 105365
# 120895
# 138083
# 155518
# 171264
# 182357
# 194097
#
# Disc length: 2948 seconds
#
# Revision: 0
# Processed by: cddbd v1.5.2PL0 Copyright (c) Steve Scherf et al.
# Submitted via: Audion 3.0.2 (http://www.panic.com/audion/)
#
DISCID=c30b820e
DTITLE=Daniel Rassum - Daniel Rassum Collection
DYEAR=1900
DGENRE=
TTITLE0=Sing Before The Throne 
TTITLE1=Go Back Home
TTITLE2=Sad-U-See
TTITLE3=Could've Been Jesus
TTITLE4=Do Yoy Know Him
TTITLE5=Little Daniel
TTITLE6=Beautiful Idol
TTITLE7=Closer Walk
TTITLE8=Mother Prayed
TTITLE9=Amazing Grrace
TTITLE10=Wonderful
TTITLE11=You Been So Good
TTITLE12=Hit The Streets
TTITLE13=House On Sand
EXTD=
EXTT0=
EXTT1=
EXTT2=
EXTT3=
EXTT4=
EXTT5=
EXTT6=
EXTT7=
EXTT8=
EXTT9=
EXTT10=
EXTT11=
EXTT12=
EXTT13=
PLAYORDER=
